<?xml version="1.0" encoding="UTF-8" standalone="no"?>
<!-- Created with Inkscape (http://www.inkscape.org/) -->

<svg
   xmlns:dc="http://purl.org/dc/elements/1.1/"
   xmlns:cc="http://creativecommons.org/ns#"
   xmlns:rdf="http://www.w3.org/1999/02/22-rdf-syntax-ns#"
   xmlns:svg="http://www.w3.org/2000/svg"
   xmlns="http://www.w3.org/2000/svg"
   xmlns:sodipodi="http://sodipodi.sourceforge.net/DTD/sodipodi-0.dtd"
   xmlns:inkscape="http://www.inkscape.org/namespaces/inkscape"
   width="715"
   height="150"
   viewBox="0 0 189.17708 39.687501"
   version="1.1"
   id="svg8"
   inkscape:version="0.92.3 (2405546, 2018-03-11)"
   sodipodi:docname="soshabil.svg">
  <defs
     id="defs2" />
  <sodipodi:namedview
     id="base"
     pagecolor="#ffffff"
     bordercolor="#666666"
     borderopacity="1.0"
     inkscape:pageopacity="0.0"
     inkscape:pageshadow="2"
     inkscape:zoom="0.49497475"
     inkscape:cx="623.25272"
     inkscape:cy="177.5076"
     inkscape:document-units="mm"
     inkscape:current-layer="layer1"
     showgrid="false"
     inkscape:window-width="1366"
     inkscape:window-height="745"
     inkscape:window-x="-8"
     inkscape:window-y="-8"
     inkscape:window-maximized="1"
     units="px" />
  <metadata
     id="metadata5">
    <rdf:RDF>
      <cc:Work
         rdf:about="">
        <dc:format>image/svg+xml</dc:format>
        <dc:type
           rdf:resource="http://purl.org/dc/dcmitype/StillImage" />
        <dc:title></dc:title>
      </cc:Work>
    </rdf:RDF>
  </metadata>
  <g
     inkscape:label="Layer 1"
     inkscape:groupmode="layer"
     id="layer1"
     transform="translate(0,-257.31249)">
    <rect
       style="opacity:1;fill:#48373e;fill-opacity:1;stroke:none;stroke-width:0.52295059;stroke-miterlimit:4;stroke-dasharray:none;stroke-opacity:1"
       id="rect819"
       width="148.5103"
       height="37.884022"
       x="1.0885401"
       y="258.21429"
       ry="18.942011" />
    <path
       inkscape:connector-curvature="0"
       id="path827"
       style="font-style:normal;font-variant:normal;font-weight:bold;font-stretch:normal;font-size:medium;line-height:1.25;font-family:'Fredoka One';-inkscape-font-specification:'Fredoka One Bold';letter-spacing:0px;word-spacing:0px;fill:#ffffff;fill-opacity:1;stroke:none;stroke-width:0.77224696"
       d="m 16.944974,285.23912 q -0.803137,-0.98847 -0.803137,-1.76072 0,-0.80314 1.328265,-2.10051 0.772246,-0.74135 1.637163,-0.74135 0.864918,0 2.409411,1.54449 0.432458,0.52512 1.235595,1.01937 0.803137,0.46334 1.482714,0.46334 2.872759,0 2.872759,-2.34763 0,-0.71047 -0.803136,-1.17382 -0.772248,-0.49423 -1.946063,-0.71047 -1.173816,-0.21623 -2.53297,-0.67957 -1.359155,-0.49424 -2.53297,-1.14293 -1.173816,-0.64868 -1.976953,-2.03873 -0.772246,-1.42093 -0.772246,-3.39789 0,-2.7183 2.007842,-4.72615 2.038732,-2.03873 5.529288,-2.03873 1.853393,0 3.366997,0.49424 1.544494,0.46335 2.131402,0.95758 l 0.772247,0.58691 q 0.957586,0.89581 0.957586,1.51361 0,0.61779 -0.741357,1.69894 -1.050257,1.5445 -2.162291,1.5445 -0.648688,0 -1.606274,-0.61781 -0.09267,-0.0617 -0.370679,-0.30889 -0.247119,-0.24712 -0.463348,-0.40157 -0.648688,-0.40157 -1.668054,-0.40157 -0.988476,0 -1.668053,0.49424 -0.648688,0.46335 -0.648688,1.32826 0,0.83403 0.772247,1.35916 0.803137,0.52513 1.976952,0.71047 1.173816,0.18534 2.563861,0.58691 1.390044,0.37068 2.56386,0.92669 1.173815,0.55602 1.946062,1.94606 0.803137,1.35916 0.803137,3.367 0,2.00785 -0.803137,3.55234 -0.803137,1.5136 -2.100512,2.34763 -2.50208,1.63716 -5.343949,1.63716 -1.451825,0 -2.749199,-0.33979 -1.297375,-0.37068 -2.100512,-0.8958 -1.637164,-0.98848 -2.285852,-1.91517 z" />
    <g
       id="g893"
       transform="matrix(1.0023225,0,0,1.0023225,-11.185719,14.547747)">
      <path
         d="m 75.250812,270.06415 q -0.801276,-0.98618 -0.801276,-1.75664 0,-0.80128 1.325187,-2.09564 0.770457,-0.73964 1.63337,-0.73964 0.862913,0 2.403828,1.54091 0.431456,0.52391 1.232732,1.01701 0.801276,0.46227 1.479278,0.46227 2.866103,0 2.866103,-2.34219 0,-0.70882 -0.801276,-1.1711 -0.770458,-0.49309 -1.941553,-0.70882 -1.171096,-0.21573 -2.527101,-0.678 -1.356006,-0.49309 -2.527101,-1.14028 -1.171096,-0.64718 -1.972372,-2.03401 -0.770457,-1.41764 -0.770457,-3.39001 0,-2.71201 2.00319,-4.7152 2.034008,-2.03401 5.516476,-2.03401 1.849098,0 3.359195,0.4931 1.540915,0.46227 2.126463,0.95536 l 0.770458,0.58555 q 0.955367,0.89373 0.955367,1.5101 0,0.61636 -0.739639,1.695 -1.047823,1.54092 -2.157281,1.54092 -0.647185,0 -1.602552,-0.61637 -0.09246,-0.0616 -0.36982,-0.30818 -0.246546,-0.24655 -0.462275,-0.40064 -0.647184,-0.40064 -1.664188,-0.40064 -0.986186,0 -1.664188,0.4931 -0.647185,0.46227 -0.647185,1.32518 0,0.8321 0.770458,1.35601 0.801276,0.52391 1.972371,0.70882 1.171096,0.18491 2.55792,0.58555 1.386823,0.36982 2.557919,0.92455 1.171095,0.55473 1.941553,1.94155 0.801276,1.35601 0.801276,3.3592 0,2.00319 -0.801276,3.5441 -0.801276,1.5101 -2.095645,2.34219 -2.496282,1.63337 -5.331566,1.63337 -1.448461,0 -2.742829,-0.339 -1.294369,-0.36982 -2.095645,-0.89373 -1.63337,-0.98619 -2.280555,-1.91073 z"
         style="font-style:normal;font-variant:normal;font-weight:bold;font-stretch:normal;font-size:medium;line-height:1.25;font-family:'Fredoka One';-inkscape-font-specification:'Fredoka One Bold';letter-spacing:0px;word-spacing:0px;fill:#ffffff;fill-opacity:1;stroke:none;stroke-width:0.77045757"
         id="path831"
         inkscape:connector-curvature="0" />
      <path
         d="m 106.86989,251.48072 q 0.24655,-0.46228 0.8321,-0.64719 0.58555,-0.18491 1.47928,-0.18491 0.89373,0 1.41764,0.15409 0.52391,0.1541 0.80128,0.36982 0.27736,0.21573 0.43145,0.61637 0.15409,0.52391 0.15409,1.60255 v 17.10416 q 0,0.70882 -0.0616,1.07864 -0.0308,0.339 -0.27737,0.80128 -0.43145,0.83209 -2.40383,0.83209 -2.15728,0 -2.5271,-1.14028 -0.18491,-0.52391 -0.18491,-1.60255 v -6.25611 h -8.166833 v 6.28693 q 0,0.70882 -0.0616,1.07864 -0.0308,0.339 -0.277367,0.80128 -0.431457,0.83209 -2.403828,0.83209 -2.157282,0 -2.527102,-1.14028 -0.18491,-0.52391 -0.18491,-1.60255 v -17.10416 q 0,-0.70882 0.03082,-1.04782 0.06164,-0.36982 0.308184,-0.83209 0.431456,-0.8321 2.403828,-0.8321 2.157278,0 2.557918,1.14028 0.154087,0.52391 0.154087,1.60255 v 6.28694 h 8.166833 v -6.31776 q 0,-0.70882 0.0308,-1.04782 0.0616,-0.36982 0.30818,-0.83209 z"
         style="font-style:normal;font-variant:normal;font-weight:bold;font-stretch:normal;font-size:medium;line-height:1.25;font-family:'Fredoka One';-inkscape-font-specification:'Fredoka One Bold';letter-spacing:0px;word-spacing:0px;fill:#ffffff;fill-opacity:1;stroke:none;stroke-width:0.77045757"
         id="path833"
         inkscape:connector-curvature="0" />
      <path
         d="m 127.49408,252.25117 8.32094,17.19662 q 0.52391,1.04782 0.52391,1.57173 0,1.10946 -1.78746,2.00319 -1.04782,0.52391 -1.66419,0.52391 -0.58555,0 -0.98618,-0.27736 -0.36982,-0.27737 -0.55473,-0.58555 -0.15409,-0.30818 -0.46228,-0.92455 l -1.60255,-3.32838 h -8.53667 l -1.60255,3.32838 q -0.30818,0.61637 -0.49309,0.89373 -0.1541,0.27737 -0.55473,0.58555 -0.36982,0.27736 -0.98619,0.27736 -0.58555,0 -1.63337,-0.52391 -1.78746,-0.86291 -1.78746,-1.97237 0,-0.52391 0.52391,-1.57173 l 8.32094,-17.22743 q 0.339,-0.70883 1.01701,-1.14028 0.70882,-0.43146 1.47927,-0.43146 1.66419,0 2.46547,1.60255 z m -2.49628,7.3964 -2.03401,4.2221 h 4.09883 z"
         style="font-style:normal;font-variant:normal;font-weight:bold;font-stretch:normal;font-size:medium;line-height:1.25;font-family:'Fredoka One';-inkscape-font-specification:'Fredoka One Bold';letter-spacing:0px;word-spacing:0px;fill:#ffffff;fill-opacity:1;stroke:none;stroke-width:0.77045757"
         id="path835"
         inkscape:connector-curvature="0" />
    </g>
    <path
       style="opacity:1;fill:#ff0031;fill-opacity:1;stroke:none;stroke-width:0.50253975;stroke-miterlimit:4;stroke-dasharray:none;stroke-opacity:1"
       d="m 127.54885,258.21416 v 37.88392 h 41.59772 c 10.49389,0 18.94197,-8.44808 18.94197,-18.94196 0,-10.49387 -8.44808,-18.94196 -18.94197,-18.94196 z"
       id="rect821"
       inkscape:connector-curvature="0"
       sodipodi:nodetypes="ccsssc" />
    <text
       id="text825"
       y="288.42078"
       x="128.34377"
       style="font-style:normal;font-weight:normal;font-size:30.88987923px;line-height:1.25;font-family:sans-serif;letter-spacing:0px;word-spacing:0px;fill:#ffffff;fill-opacity:1;stroke:none;stroke-width:0.77224696"
       xml:space="preserve"><tspan
         style="font-style:normal;font-variant:normal;font-weight:bold;font-stretch:normal;font-family:'Fredoka One';-inkscape-font-specification:'Fredoka One Bold';fill:#ffffff;stroke-width:0.77224696"
         y="288.42078"
         x="128.34377"
         id="tspan823"
         sodipodi:role="line">BIL</tspan></text>
    <g
       id="g921"
       transform="matrix(1.0270606,0,0,1.0270606,-0.37715173,-11.183666)">
      <path
         id="path917"
         d="m 47.460938,267.5957 c -7.677383,0 -13.968751,5.76689 -13.96875,12.92774 0,3.90459 1.900141,7.38186 4.841796,9.74609 v 5.68359 l 5.712891,-2.92773 c 1.120516,0.26208 2.262656,0.4274 3.414063,0.42773 7.677373,0 13.966796,-5.76687 13.966796,-12.92773 0,-7.16084 -6.289264,-12.92969 -13.966796,-12.92969 z"
         style="color:#000000;font-style:normal;font-variant:normal;font-weight:normal;font-stretch:normal;font-size:medium;line-height:normal;font-family:sans-serif;font-variant-ligatures:normal;font-variant-position:normal;font-variant-caps:normal;font-variant-numeric:normal;font-variant-alternates:normal;font-feature-settings:normal;text-indent:0;text-align:start;text-decoration:none;text-decoration-line:none;text-decoration-style:solid;text-decoration-color:#000000;letter-spacing:normal;word-spacing:normal;text-transform:none;writing-mode:lr-tb;direction:ltr;text-orientation:mixed;dominant-baseline:auto;baseline-shift:baseline;text-anchor:start;white-space:normal;shape-padding:0;clip-rule:nonzero;display:inline;overflow:visible;visibility:visible;opacity:1;isolation:auto;mix-blend-mode:normal;color-interpolation:sRGB;color-interpolation-filters:linearRGB;solid-color:#000000;solid-opacity:1;vector-effect:none;fill:#fdfdfd;fill-opacity:1;fill-rule:nonzero;stroke:none;stroke-width:1.32291663;stroke-linecap:butt;stroke-linejoin:miter;stroke-miterlimit:4;stroke-dasharray:none;stroke-dashoffset:0;stroke-opacity:1;color-rendering:auto;image-rendering:auto;shape-rendering:auto;text-rendering:auto;enable-background:accumulate"
         inkscape:connector-curvature="0" />
      <path
         id="path8"
         d="m 47.460938,268.91992 c 7.017911,0 12.644531,5.22053 12.644531,11.60547 0,6.38496 -5.626461,11.60547 -12.644531,11.60547 -1.139612,-3.3e-4 -2.27454,-0.1426 -3.378907,-0.42383 l -0.242187,-0.0625 -4.183594,2.14258 v -4.125 l -0.259766,-0.19922 c -2.808768,-2.13882 -4.580078,-5.34657 -4.580078,-8.93945 0,-6.38495 5.62645,-11.60352 12.644532,-11.60352 z"
         style="color:#000000;font-style:normal;font-variant:normal;font-weight:normal;font-stretch:normal;font-size:medium;line-height:normal;font-family:sans-serif;font-variant-ligatures:normal;font-variant-position:normal;font-variant-caps:normal;font-variant-numeric:normal;font-variant-alternates:normal;font-feature-settings:normal;text-indent:0;text-align:start;text-decoration:none;text-decoration-line:none;text-decoration-style:solid;text-decoration-color:#000000;letter-spacing:normal;word-spacing:normal;text-transform:none;writing-mode:lr-tb;direction:ltr;text-orientation:mixed;dominant-baseline:auto;baseline-shift:baseline;text-anchor:start;white-space:normal;shape-padding:0;clip-rule:nonzero;display:inline;overflow:visible;visibility:visible;opacity:1;isolation:auto;mix-blend-mode:normal;color-interpolation:sRGB;color-interpolation-filters:linearRGB;solid-color:#000000;solid-opacity:1;vector-effect:none;fill:#ff0031;fill-opacity:1;fill-rule:nonzero;stroke:none;stroke-width:1.32291663;stroke-linecap:butt;stroke-linejoin:miter;stroke-miterlimit:4;stroke-dasharray:none;stroke-dashoffset:0;stroke-opacity:1;color-rendering:auto;image-rendering:auto;shape-rendering:auto;text-rendering:auto;enable-background:accumulate"
         inkscape:connector-curvature="0" />
    </g>
    <path
       inkscape:connector-curvature="0"
       d="m 57.362673,276.94451 c -0.269009,-0.7993 -1.135088,-1.22916 -1.934361,-0.96012 l -1.621029,0.5456 -1.098665,-3.26418 1.57878,-0.53138 c 0.79931,-0.26899 1.229165,-1.13508 0.960121,-1.93435 -0.26901,-0.79931 -1.135089,-1.22917 -1.934361,-0.96012 l -1.578745,0.53137 -0.531765,-1.57993 c -0.269044,-0.79931 -1.135088,-1.22916 -1.934359,-0.96011 v 0 c -0.79931,0.269 -1.229169,1.13509 -0.960123,1.93435 l 0.531765,1.57994 -3.33299,1.12181 -0.52533,-1.5608 c -0.269046,-0.79932 -1.135089,-1.22917 -1.934361,-0.96011 -0.799309,0.26904 -1.229166,1.13509 -0.960122,1.93434 l 0.525331,1.56081 -1.588825,0.53477 c -0.799307,0.26906 -1.229164,1.13508 -0.960118,1.93437 v 0 c 0.269009,0.7993 1.135087,1.22917 1.93436,0.96012 l 1.588823,-0.53477 1.098665,3.26419 -1.546573,0.52052 c -0.799309,0.26905 -1.229168,1.1351 -0.960122,1.93437 0.269009,0.79929 1.135089,1.22917 1.934362,0.96012 l 1.546574,-0.52053 0.563969,1.67557 c 0.269045,0.79932 1.135087,1.22916 1.934361,0.96011 0.799309,-0.26903 1.229166,-1.13509 0.96012,-1.93434 l -0.563968,-1.67559 3.332988,-1.12181 0.557537,1.65645 c 0.269045,0.79929 1.135089,1.22914 1.934363,0.96011 0.799309,-0.26905 1.229166,-1.13509 0.96012,-1.93437 l -0.557535,-1.65645 1.621029,-0.54559 c 0.799236,-0.26902 1.22913,-1.13505 0.960084,-1.93437 z m -9.782898,1.68154 -1.098664,-3.26418 3.332988,-1.12182 1.098665,3.26418 z"
       id="path2"
       style="fill:#ffffff;stroke-width:0.35744053" />
  </g>
</svg>
